#!OML:ASF I:\golf\golf\golf 2\Subject 1\2002-09-07\Subject1.ASF
:FULLY-SPECIFIED
:DEGREES
430
root -5.89574 18.0906 -2.47339 -164.355 17.1361 -175.134
lowerback -2.15697 8.93669 6.29683
upperback -4.94807 12.7138 3.3455
thorax -3.42417 6.46013 -0.0283614
lowerneck -17.3425 -6.30178 1.11969
upperneck 10.3635 -8.54556 -1.28087
head 5.83778 -4.20782 -1.42185
rclavicle -1.13556e-014 -8.26944e-014
rhumerus 31.51 24.7768 -99.3535
rradius 17.8575
rwrist -7.16406
rhand -29.1583 12.8965
rfingers 7.12502
rthumb -2.50464 -17.0685
lclavicle -1.13556e-014 -8.26944e-014
lhumerus 22.8802 -2.52189 104.873
lradius 24.6809
lwrist 22.0138
lhand -21.9089 21.9525
lfingers 7.12502
lthumb -175.503 -128.115
rfemur 2.39339 -8.1215 18.5374
rtibia 27.2234
rfoot 9.662 -26.192
rtoes 14.0039
lfemur -27.7521 -11.8008 -11.4074
ltibia 19.6468
lfoot 32.0947 -37.0461
ltoes 34.9527
431
root -5.88202 18.0907 -2.46729 -164.444 17.2537 -175.067
lowerback -2.1095 8.94627 6.21501
upperback -4.91535 12.7211 3.35038
thorax -3.4327 6.46368 0.0122591
lowerneck -17.4409 -6.28937 1.1106
upperneck 10.3893 -8.55054 -1.12025
head 5.86985 -4.19693 -1.37513
rclavicle -1.16948e-013 4.77083e-015
rhumerus 30.4493 24.4838 -99.6779
rradius 17.6738
rwrist -7.29435
rhand -29.1709 12.7663
rfingers 7.12502
rthumb -2.51675 -17.1986
lclavicle -1.16948e-013 4.77083e-015
lhumerus 21.952 -2.28987 105.113
lradius 24.4745
lwrist 21.6359
lhand -22.0909 22.3027
lfingers 7.12502
lthumb -175.679 -127.761
rfemur 2.46867 -7.96595 18.6384
rtibia 27.275
rfoot 9.35121 -26.3847
rtoes 14.9266
lfemur -27.556 -11.6782 -11.3439
ltibia 19.5935
lfoot 31.957 -37.1229
ltoes 34.8707
432
root -5.86953 18.0957 -2.46181 -164.422 17.4273 -175.013
lowerback -2.15409 8.97255 6.10289
upperback -4.90969 12.747 3.33948
thorax -3.42088 6.4795 0.0664254
lowerneck -17.5869 -6.29958 1.11135
upperneck 10.4192 -8.58586 -0.9807
head 5.90909 -4.20178 -1.34115
rclavicle 7.80354e-014 4.45278e-014
rhumerus 29.3757 24.0958 -100.089
rradius 17.5234
rwrist -7.38118
rhand -29.1771 12.6669
rfingers 7.12502
rthumb -2.52275 -17.2979
lclavicle 7.80354e-014 4.45278e-014
lhumerus 21.0454 -2.15125 105.272
lradius 24.2574
lwrist 21.3778
lhand -22.3446 22.2613
lfingers 7.12502
lthumb -175.924 -127.798
rfemur 2.40858 -7.80388 18.712
rtibia 27.3219
rfoot 9.28868 -26.3987
rtoes 14.8405
lfemur -27.4837 -11.5614 -11.2656
ltibia 19.538
lfoot 31.883 -37.033
ltoes 35.076
433
root -5.86241 18.1011 -2.45495 -164.364 17.6174 -175.013
lowerback -2.26849 8.98583 5.99039
upperback -4.86115 12.742 3.32733
thorax -3.32575 6.48138 0.136749
lowerneck -17.6733 -6.28487 1.07083
upperneck 10.2866 -8.57648 -0.8318
head 5.8896 -4.18818 -1.28719
rclavicle -6.68786e-014 -3.18055e-015
rhumerus 28.52 24.059 -100.219
rradius 17.3549
rwrist -7.75394
rhand -29.3507 12.6513
rfingers 7.12502
rthumb -2.69043 -17.3115
lclavicle -6.68786e-014 -3.18055e-015
lhumerus 20.1999 -2.06365 105.359
lradius 24.1792
lwrist 21.3048
lhand -22.6349 22.1373
lfingers 7.12502
lthumb -176.204 -127.917
rfemur 2.28448 -7.73278 18.6958
rtibia 27.3521
rfoot 9.44872 -26.2959
rtoes 14.3401
lfemur -27.4881 -11.4489 -11.2539
ltibia 19.5013
lfoot 31.4704 -37.3009
ltoes 34.5033
434
root -5.85811 18.1056 -2.447 -164.405 17.7621 -175.069
lowerback -2.32075 8.98668 5.89603
upperback -4.76166 12.714 3.30757
thorax -3.20616 6.46845 0.184712
lowerneck -17.6977 -6.22191 0.988603
upperneck 10.1105 -8.49556 -0.654527
head 5.85022 -4.14017 -1.20784
rclavicle -1.54058e-015 -4.13472e-014
rhumerus 27.7976 24.196 -100.155
rradius 17.2146
rwrist -8.32567
rhand -29.5283 12.581
rfingers 7.12502
rthumb -2.86191 -17.3795
lclavicle -1.54058e-015 -4.13472e-014
lhumerus 19.3715 -2.02496 105.447
lradius 24.1617
lwrist 21.3866
lhand -22.1747 21.8113
lfingers 7.12502
lthumb -175.76 -128.251
rfemur 2.24852 -7.71526 18.6112
rtibia 27.3968
rfoot 9.46223 -26.2809
rtoes 14.707
lfemur -27.4245 -11.3949 -11.3297
ltibia 19.4812
lfoot 30.6978 -37.8944
ltoes 33.2195
435
root -5.8536 18.1081 -2.4391 -164.458 17.8842 -175.093
lowerback -2.3565 8.99183 5.85196
upperback -4.64303 12.6902 3.28584
thorax -3.0649 6.45567 0.205074
lowerneck -17.9056 -6.16663 0.946348
upperneck 10.087 -8.42775 -0.549071
head 5.88374 -4.09975 -1.1685
rclavicle -1.4725e-013 -4.13472e-014
rhumerus 27.0457 24.1166 -100.25
rradius 17.1245
rwrist -8.69537
rhand -29.554 12.407
rfingers 7.12502
rthumb -2.88679 -17.5532
lclavicle -1.4725e-013 -4.13472e-014
lhumerus 18.6343 -2.22307 105.426
lradius 24.1001
lwrist 21.6733
lhand -21.0469 21.4446
lfingers 7.12502
lthumb -174.671 -128.642
rfemur 2.23592 -7.72854 18.5532
rtibia 27.4566
rfoot 9.43639 -26.2351
rtoes 15.2015
lfemur -27.3605 -11.4056 -11.3627
ltibia 19.4865
lfoot 29.717 -38.5331
ltoes 31.8861
436
root -5.84912 18.1083 -2.42886 -164.477 18.1244 -175.048
lowerback -2.37699 9.01624 5.82141
upperback -4.50974 12.6955 3.29474
thorax -2.92056 6.45841 0.2483
lowerneck -18.2582 -6.11849 0.881688
upperneck 10.1657 -8.3663 -0.446099
head 5.97387 -4.06114 -1.1344
rclavicle -5.65045e-014 2.8625e-014
rhumerus 26.3165 24.0194 -100.411
rradius 17.0421
rwrist -9.0385
rhand -29.4934 12.4068
rfingers 7.12502
rthumb -2.82821 -17.5542
lclavicle -5.65045e-014 2.8625e-014
lhumerus 17.8282 -2.76685 105.106
lradius 24.2735
lwrist 22.2123
lhand -20.4853 21.8953
lfingers 7.12502
lthumb -174.129 -128.206
rfemur 2.20157 -7.68019 18.5221
rtibia 27.4958
rfoot 9.48906 -26.1068
rtoes 15.2838
lfemur -27.3077 -11.3721 -11.3245
ltibia 19.5262
lfoot 29.2241 -38.5915
ltoes 31.7653
437
root -5.84481 18.11 -2.41739 -164.465 18.3903 -174.948
lowerback -2.37458 9.05578 5.82314
upperback -4.3915 12.7306 3.32949
thorax -2.80389 6.47659 0.295653
lowerneck -18.556 -6.08607 0.721414
upperneck 10.2028 -8.31192 -0.269683
head 6.04908 -4.02435 -1.0601
rclavicle 1.36664e-014 -7.95139e-015
rhumerus 25.7025 24.2719 -100.265
rradius 17.0048
rwrist -9.81936
rhand -29.5051 12.5159
rfingers 7.12502
rthumb -2.83956 -17.4449
lclavicle 1.36664e-014 -7.95139e-015
lhumerus 17.0858 -3.03254 104.998
lradius 24.3074
lwrist 22.3585
lhand -20.466 22.3741
lfingers 7.12502
lthumb -174.11 -127.728
rfemur 2.14471 -7.58632 18.5491
rtibia 27.5188
rfoot 9.61283 -26.0027
rtoes 14.9707
lfemur -27.2657 -11.3289 -11.2162
ltibia 19.575
lfoot 29.0672 -38.3224
ltoes 32.3202
438
root -5.83999 18.1134 -2.4105 -164.409 18.4697 -174.912
lowerback -2.51383 9.0569 5.81014
upperback -4.28848 12.7041 3.34071
thorax -2.62436 6.4669 0.349935
lowerneck -18.8161 -6.06429 0.587068
upperneck 10.1791 -8.26649 -0.161491
head 6.09414 -3.99764 -1.00901
rclavicle -1.40193e-013 4.45278e-014
rhumerus 25.1823 24.6882 -99.9245
rradius 16.9984
rwrist -10.7363
rhand -29.5619 12.532
rfingers 7.12502
rthumb -2.89433 -17.4281
lclavicle -1.40193e-013 4.45278e-014
lhumerus 16.716 -2.80457 105.326
lradius 23.9047
lwrist 21.885
lhand -20.4668 22.3708
lfingers 7.12502
lthumb -174.111 -127.731
rfemur 2.03593 -7.67748 18.5747
rtibia 27.5432
rfoot 10.081 -25.786
rtoes 13.527
lfemur -27.3153 -11.41 -11.1261
ltibia 19.5946
lfoot 28.9853 -38.0272
ltoes 32.9037
439
root -5.83478 18.1172 -2.40453 -164.358 18.5157 -174.975
lowerback -2.68219 9.05898 5.72
upperback -4.20275 12.6725 3.2992
thorax -2.45028 6.45385 0.393846
lowerneck -19.0047 -6.05564 0.487319
upperneck 10.0941 -8.24192 -0.0803482
head 6.10505 -3.98344 -0.96988
rclavicle 1.37112e-013 3.49861e-014
rhumerus 24.6208 24.6843 -99.8713
rradius 16.9362
rwrist -11.1276
rhand -29.6171 12.5514
rfingers 7.12502
rthumb -2.94772 -17.408
lclavicle 1.37112e-013 3.49861e-014
lhumerus 16.2974 -2.95139 105.467
lradius 23.704
lwrist 21.8122
lhand -20.5708 22.5672
lfingers 7.12502
lthumb -174.211 -127.532
rfemur 1.91505 -7.81483 18.513
rtibia 27.5604
rfoot 10.5368 -25.5132
rtoes 12.1664
lfemur -27.3939 -11.5154 -11.1366
ltibia 19.5848
lfoot 28.8317 -37.7881
ltoes 33.1011
440
root -5.82858 18.1203 -2.39705 -164.353 18.5852 -175.081
lowerback -2.79311 9.04951 5.55532
upperback -4.13096 12.632 3.25715
thorax -2.33763 6.43588 0.461625
lowerneck -19.0988 -6.04144 0.403907
upperneck 9.96634 -8.21642 0.0232387
head 6.0873 -3.96761 -0.921963
rclavicle 1.06896e-013 4.29375e-014
rhumerus 24.0204 24.5759 -99.9549
rradius 16.8864
rwrist -11.2644
rhand -29.7406 12.4888
rfingers 7.12502
rthumb -3.06694 -17.4689
lclavicle 1.06896e-013 4.29375e-014
lhumerus 15.7211 -3.30007 105.417
lradius 23.7165
lwrist 22.1179
lhand -20.7231 23.0489
lfingers 7.12502
lthumb -174.358 -127.046
rfemur 1.85215 -7.83898 18.423
rtibia 27.5738
rfoot 10.2251 -25.6083
rtoes 13.0669
lfemur -27.4278 -11.6081 -11.2047
ltibia 19.5705
lfoot 28.3999 -37.8922
ltoes 32.7934
